<svg width="25" height="25" viewBox="0 0 25 25" fill="none" xmlns="http://www.w3.org/2000/svg">
<g clip-path="url(#clip0_1_49)">
<path d="M12.8506 0C12.9144 0.252375 12.9991 0.502035 13.0391 0.75848C13.1082 1.2374 13.0617 1.72593 12.9035 2.18318C12.6941 2.82022 12.3362 3.36906 11.8915 3.86228C11.1196 4.71945 10.4592 5.67092 9.92588 6.69403C9.26051 7.96392 8.78243 9.32358 8.50653 10.7307C8.39605 11.2856 8.32895 11.8501 8.26252 12.4132C8.22049 12.7659 8.21101 13.1228 8.19474 13.4783C8.18321 13.7497 8.18322 14.021 8.17915 14.2924C8.18009 14.3303 8.18303 14.3681 8.18796 14.4057H8.21507C8.25439 14.2578 8.29302 14.1092 8.33301 13.9613C8.8956 11.8765 9.80523 9.95862 11.1209 8.24423C12.1218 6.92263 13.3525 5.7924 14.754 4.90773C14.7743 4.89484 14.7967 4.88399 14.8434 4.85821C14.8936 5.06174 14.9553 5.24695 14.9851 5.43894C15.1559 6.54545 14.7933 7.47965 14.0639 8.30054C13.502 8.93284 12.9239 9.55495 12.4067 10.2232C11.4754 11.4261 10.8626 12.791 10.5088 14.2707C10.4458 14.5346 10.3915 14.8005 10.3332 15.0658L10.3604 15.0773C10.3787 15.0502 10.399 15.0244 10.4146 14.9966C10.8747 14.1596 11.4221 13.3737 12.0474 12.652C13.2953 11.2273 14.7736 10.1201 16.5651 9.46337C16.5915 9.45387 16.6179 9.44233 16.6451 9.43284C16.6547 9.43176 16.6645 9.43176 16.6742 9.43284C16.7635 9.63525 16.8152 9.85228 16.8267 10.0733C16.8864 10.9369 16.5319 11.6303 15.9069 12.1893C15.5972 12.4668 15.244 12.6947 14.9098 12.9444C13.4017 14.0706 12.3728 15.5224 11.9187 17.3636C11.8175 17.7824 11.7573 18.21 11.739 18.6404C11.6984 19.4986 11.8292 20.3195 12.2433 21.0773C12.7449 21.9966 13.5088 22.5943 14.5479 22.7544C15.8961 22.962 16.9684 22.4674 17.754 21.3514L17.7946 21.2938L19.6627 22.4403C19.4757 22.7472 19.2569 23.0335 19.0099 23.2944C18.2112 24.1557 17.1502 24.7282 15.9923 24.9227C15.4667 25.0087 14.932 25.0247 14.4022 24.9702C13.4249 24.8818 12.4721 24.6146 11.5913 24.1818C10.8052 23.796 10.081 23.295 9.44259 22.6954C8.45887 21.7711 7.66277 20.6654 7.09803 19.4389C6.66309 18.5117 6.35333 17.5307 6.17688 16.5217C6.10029 16.0875 6.06572 15.6459 6.01624 15.2069C5.99523 15.0251 5.98506 14.8426 5.97015 14.6601V14.0536C5.97628 14.0332 5.98081 14.0123 5.98371 13.9912C6.00269 13.6459 6.01353 13.3005 6.03861 12.9579C6.06911 12.5678 6.09351 12.1757 6.15452 11.7897C6.25348 11.1669 6.35786 10.5448 6.49749 9.92944C6.8005 8.58013 7.26072 7.27108 7.86871 6.02917C8.52019 4.67578 9.35149 3.41675 10.34 2.2863C10.9752 1.56236 11.6789 0.901658 12.4412 0.313433C12.5768 0.210991 12.7022 0.104478 12.8323 0H12.854" fill="#005847"/>
<path d="M19.6552 16.7741L17.8 17.924C16.847 16.6119 15.5978 16.1601 14.026 16.5963C14.0285 16.5784 14.0326 16.5607 14.0382 16.5434C14.3679 15.7716 14.8968 15.1014 15.5707 14.6018C15.6737 14.5231 15.7836 14.4525 15.8812 14.3684C15.9122 14.342 15.9495 14.3239 15.9895 14.316C16.0294 14.308 16.0708 14.3104 16.1096 14.3229C16.8373 14.4653 17.5278 14.7564 18.1379 15.1782C18.748 15.6 19.2646 16.1433 19.6552 16.7741" fill="#005847"/>
</g>
<defs>
<clipPath id="clip0_1_49">
<rect width="25" height="25" fill="white"/>
</clipPath>
</defs>
</svg>
